# xmcd
#
# Track frame offsets: 
#        150
#        21020
#        44088
#        63098
#        84518
#        106441
#        125769
#        149795
#        165863
#        186363
#        213772
#
# Disc length: 3118 seconds
#
# Revision: 0
# Processed by: cddbd v1.5.2PL0 Copyright (c) Steve Scherf et al.
# Submitted via: ExactAudioCopy v1.0b3
#
DISCID=9b0c2c0b
DTITLE=Cam Ly - Chuyen Chung Minh
DYEAR=2008
DGENRE=
TTITLE0=Chuyen chung minh
TTITLE1=Lau dai mong mo
TTITLE2=Toi va anh
TTITLE3=Que toi
TTITLE4=Minh oi
TTITLE5=Trai tim mem yeu
TTITLE6=Tinh yeu ngay ay
TTITLE7=Mua Xuan se qua
TTITLE8=Me toi ruoc dau
TTITLE9=Noi buon Me toi
TTITLE10=Giang huong
EXTD=
EXTT0=
EXTT1=
EXTT2=
EXTT3=
EXTT4=
EXTT5=
EXTT6=
EXTT7=
EXTT8=
EXTT9=
EXTT10=
PLAYORDER=
